<svg width="40" height="40" viewBox="0 0 40 40" fill="none" xmlns="http://www.w3.org/2000/svg">
<path fill-rule="evenodd" clip-rule="evenodd" d="M29.0407 4.29289C28.6502 3.90237 28.017 3.90237 27.6265 4.29289C27.2359 4.68342 27.2359 5.31658 27.6265 5.70711L30.6501 8.73076H19.296C11.7679 8.73076 5.66602 14.8366 5.66602 22.3675C5.66602 29.8984 11.7679 36.0043 19.296 36.0043C26.8241 36.0043 32.926 29.8984 32.926 22.3675C32.926 21.8152 32.4782 21.3675 31.926 21.3675C31.3737 21.3675 30.926 21.8152 30.926 22.3675C30.926 28.7948 25.7185 34.0043 19.296 34.0043C12.8734 34.0043 7.66602 28.7948 7.66602 22.3675C7.66602 15.9402 12.8734 10.7308 19.296 10.7308H31.1886L27.6265 14.2929C27.2359 14.6834 27.2359 15.3166 27.6265 15.7071C28.017 16.0976 28.6502 16.0976 29.0407 15.7071L34.0407 10.7071C34.4312 10.3166 34.4312 9.68342 34.0407 9.29289L29.0407 4.29289Z" fill="white"/>
<path d="M15.3421 26.667H17.4781V17.907H14.1541V19.815H15.3421V26.667ZM18.8818 22.167C18.8818 24.759 19.7578 26.631 22.2538 26.631C24.7498 26.631 25.6258 24.759 25.6258 22.167C25.6258 19.599 24.7498 17.727 22.2538 17.727C19.7578 17.727 18.8818 19.599 18.8818 22.167ZM23.6098 22.167C23.6098 23.559 23.4658 24.711 22.2538 24.711C21.0418 24.711 20.8978 23.559 20.8978 22.167C20.8978 20.823 21.0418 19.647 22.2538 19.647C23.4658 19.647 23.6098 20.823 23.6098 22.167Z" fill="white"/>
</svg>
