<svg width="24" height="24" viewBox="0 0 24 24" fill="none" xmlns="http://www.w3.org/2000/svg">
<path fill-rule="evenodd" clip-rule="evenodd" d="M5 3C3.89543 3 3 3.89543 3 5V8.5C3 9.05228 3.44772 9.5 4 9.5C4.55228 9.5 5 9.05228 5 8.5V5H8.5C9.05228 5 9.5 4.55228 9.5 4C9.5 3.44772 9.05228 3 8.5 3H5ZM19 3C20.1046 3 21 3.89543 21 5V9C21 9.55229 20.5523 10 20 10C19.4477 10 19 9.55229 19 9V5H15C14.4477 5 14 4.55228 14 4C14 3.44772 14.4477 3 15 3H19ZM3 19C3 20.1046 3.89543 21 5 21H8.5C9.05228 21 9.5 20.5523 9.5 20C9.5 19.4477 9.05228 19 8.5 19H5V15.5C5 14.9477 4.55228 14.5 4 14.5C3.44772 14.5 3 14.9477 3 15.5V19ZM19 21C20.1046 21 21 20.1046 21 19V15C21 14.4477 20.5523 14 20 14C19.4477 14 19 14.4477 19 15V19H15C14.4477 19 14 19.4477 14 20C14 20.5523 14.4477 21 15 21H19Z" fill="white"/>
</svg>
