<svg width="29" height="29" viewBox="0 0 29 29" fill="none" xmlns="http://www.w3.org/2000/svg">
<path d="M18.3953 13.4816L12.7378 10.1791C12.5634 10.0666 12.362 10.0047 12.1555 10.0003C11.949 9.9958 11.7453 10.0489 11.5663 10.1538C11.3874 10.2587 11.2401 10.4115 11.1405 10.5954C11.0408 10.7794 10.9925 10.9876 11.0009 11.1975V17.8025C10.9925 18.0124 11.0408 18.2206 11.1405 18.4046C11.2401 18.5885 11.3874 18.7413 11.5663 18.8462C11.7453 18.9511 11.949 19.0042 12.1555 18.9997C12.362 18.9953 12.5634 18.9334 12.7378 18.8209L18.3953 15.5184C18.5778 15.4207 18.7305 15.2743 18.8371 15.0948C18.9437 14.9153 19 14.7097 19 14.5C19 14.2903 18.9437 14.0847 18.8371 13.9052C18.7305 13.7257 18.5778 13.5792 18.3953 13.4816Z" fill="white"/>
<circle cx="14.5" cy="14.5" r="13.5" stroke="white" stroke-width="2"/>
</svg>
