<svg width="40" height="40" viewBox="0 0 40 40" fill="none" xmlns="http://www.w3.org/2000/svg">
<path fill-rule="evenodd" clip-rule="evenodd" d="M10.9583 4.29289C11.3489 3.90237 11.982 3.90237 12.3726 4.29289C12.7631 4.68342 12.7631 5.31658 12.3726 5.70711L9.3489 8.73076H20.703C28.2312 8.73076 34.333 14.8366 34.333 22.3675C34.333 29.8984 28.2312 36.0043 20.703 36.0043C13.1749 36.0043 7.07307 29.8984 7.07307 22.3675C7.07307 21.8152 7.52078 21.3675 8.07307 21.3675C8.62535 21.3675 9.07307 21.8152 9.07307 22.3675C9.07307 28.7948 14.2805 34.0043 20.703 34.0043C27.1256 34.0043 32.333 28.7948 32.333 22.3675C32.333 15.9402 27.1256 10.7308 20.703 10.7308H8.81042L12.3726 14.2929C12.7631 14.6834 12.7631 15.3166 12.3726 15.7071C11.982 16.0976 11.3489 16.0976 10.9583 15.7071L5.95834 10.7071C5.7708 10.5196 5.66545 10.2652 5.66545 10C5.66545 9.73478 5.7708 9.48043 5.95834 9.29289L10.9583 4.29289Z" fill="white"/>
<path d="M17.0091 26.667H19.1451V17.907H15.8211V19.815H17.0091V26.667ZM20.5488 22.167C20.5488 24.759 21.4248 26.631 23.9208 26.631C26.4168 26.631 27.2928 24.759 27.2928 22.167C27.2928 19.599 26.4168 17.727 23.9208 17.727C21.4248 17.727 20.5488 19.599 20.5488 22.167ZM25.2768 22.167C25.2768 23.559 25.1328 24.711 23.9208 24.711C22.7088 24.711 22.5648 23.559 22.5648 22.167C22.5648 20.823 22.7088 19.647 23.9208 19.647C25.1328 19.647 25.2768 20.823 25.2768 22.167Z" fill="white"/>
</svg>
